# xmcd
#
# Track frame offsets: 
#        150
#        8840
#        30245
#        48067
#        66455
#        86645
#
# Disc length: 1262 seconds
#
# Revision: 0
# Processed by: cddbd v1.5.2PL0 Copyright (c) Steve Scherf et al.
# Submitted via: ExactAudioCopyFreeDBPlugin 1.0
#
DISCID=3e04ec06
DTITLE=シャッカゾンビ - ビッグブルー
DYEAR=1999
DGENRE=Rap
TTITLE0=ウォーム・イントロ
TTITLE1=ビッグ・ブルー（オリジナル・ヴァージョン）
TTITLE2=ココロ・ワープ 2000
TTITLE3=白いヤミの中（キミドリ・ブレイク・ヴァージョン）
TTITLE4=ビッグ・ブルー（ゴー・ゴー・キング・レコーダーズ・リミックス）
TTITLE5=コールコ・アウトロ
EXTD=
EXTT0=
EXTT1=
EXTT2=
EXTT3=
EXTT4=
EXTT5=
PLAYORDER=
